# xmcd
#
# Track frame offsets:
#	150
#	17774
#	33688
#	53040
#	66029
#	86310
#	104775
#
# Disc length: 1654 seconds
#
# Revision: 0
# Processed by: cddbd v1.5.1PL0 Copyright (c) Steve Scherf et al.
# Submitted via: dBpowerAMP V4.0
#
DISCID=57067407
DTITLE=Various Artist - On the wings 44
DYEAR=1900
DGENRE=Acid Jazz
TTITLE0=Da Hool Feat. Heather Leigh West - Set The Stakes High
TTITLE1=David Guetta - Stay
TTITLE2=David Hallyday - Le defi
TTITLE3=Sir Speedy Vs Lumidee - Sientelo
TTITLE4=The Streets - Dry your eyes
TTITLE5=Willy Denzey - Honey Dj Masu RmX
TTITLE6=Zita Swoon - Thinking about you all the time
EXTD=
EXTT0=
EXTT1=
EXTT2=
EXTT3=
EXTT4=
EXTT5=
EXTT6=
PLAYORDER=
